<svg width="80" height="75" viewBox="0 0 80 75" fill="none" xmlns="http://www.w3.org/2000/svg">
<g clip-path="url(#clip0_5073_448)">
<path d="M70.2185 9.31162C70.8663 10.681 71.2549 12.2275 71.2549 13.9191V60.8958C71.2549 62.5712 70.8663 64.1178 70.2185 65.4871C75.2226 66.3249 79.9999 62.3618 79.9999 56.9005V17.8982C79.9999 12.4047 75.2064 8.47391 70.2185 9.31162Z" fill="white"/>
<path opacity="0.8" d="M70.2195 9.31151C68.0818 4.83293 62.9644 2.30367 57.9766 3.91466C59.7094 5.9123 60.7944 8.55434 60.7944 11.5508V63.2477C60.7944 66.2281 59.7094 68.8862 57.9928 70.8839C62.9968 72.4949 68.098 69.9495 70.2357 65.487C70.8834 64.1177 71.2721 62.555 71.2721 60.8957V13.919C71.2721 12.2435 70.8834 10.697 70.2357 9.31151H70.2195Z" fill="white"/>
<path opacity="0.4" d="M22.8664 58.318C18.7692 56.8519 16.0162 52.8728 16.0162 48.4103V27.6445C16.0162 23.2948 18.6235 19.4123 22.5749 17.8497L57.3603 4.12396C57.5708 4.04341 57.7652 3.99508 57.9757 3.93064C55.0121 0.499216 50.1538 -1.04734 45.5061 0.789196L7.20648 15.9004C2.8664 17.608 0 21.8933 0 26.6779V49.5219C0 54.4354 3.02834 58.8012 7.53036 60.4284L45.8138 74.1702C50.3806 75.8134 55.0769 74.2507 57.9595 70.916C57.8462 70.8837 57.749 70.8676 57.6356 70.8193L22.834 58.3341L22.8664 58.318Z" fill="white"/>
<path opacity="0.6" d="M60.7933 62.248L39.9998 54.7739C36.6151 53.5495 34.3317 50.247 34.3317 46.5578V29.3201C34.3317 25.7115 36.4856 22.4895 39.7568 21.1846L60.7933 12.8396V11.5669C60.7933 8.57046 59.7083 5.94453 57.9755 3.93079C57.7649 3.99523 57.5706 4.04356 57.3601 4.12411L22.5585 17.8659C18.607 19.4286 15.9998 23.3111 15.9998 27.6608V48.4266C15.9998 52.889 18.7528 56.8521 22.85 58.3342L57.6516 70.8194C57.7649 70.8517 57.8621 70.8839 57.9755 70.9161C59.7083 68.9024 60.7771 66.2603 60.7771 63.28L60.7933 62.3093V62.248Z" fill="white"/>
<path d="M34.3308 29.304V46.5417C34.3308 50.247 36.598 53.5495 39.9988 54.7578L60.7923 62.2489V12.8396L39.7559 21.1846C36.4847 22.4734 34.3308 25.7115 34.3308 29.3201V29.304Z" fill="white"/>
</g>
<defs>
<clipPath id="clip0_5073_448">
<rect width="80" height="74.8148" fill="white"/>
</clipPath>
</defs>
</svg>
